HIERARCHY
ROOT Hips
{
 OFFSET 0.000000 0.000000 0.000000
 CHANNELS 6 Xposition Yposition Zposition Yrotation Xrotation Zrotation
 JOINT Chest
 {
  OFFSET 0.000000 9.581000 -0.001100
  CHANNELS 3 Yrotation Xrotation Zrotation
  JOINT Chest2
  {
   OFFSET 0.000000 9.561100 0.002200
   CHANNELS 3 Yrotation Xrotation Zrotation
   JOINT Chest3
   {
    OFFSET 0.000000 9.521100 0.000000
    CHANNELS 3 Yrotation Xrotation Zrotation
    JOINT Chest4
    {
     OFFSET 0.000000 9.511400 0.000000
     CHANNELS 3 Yrotation Xrotation Zrotation
     JOINT Neck
     {
      OFFSET 0.000000 14.375100 0.000000
      CHANNELS 3 Yrotation Xrotation Zrotation
      JOINT Head
      {
       OFFSET 0.000000 8.901200 0.004600
       CHANNELS 3 Yrotation Xrotation Zrotation
       End Site
       {
        OFFSET 0.000000 16.962200 0.002400
       }
      }
     }
     JOINT RightCollar
     {
      OFFSET -2.920100 9.518800 0.000000
      CHANNELS 3 Yrotation Xrotation Zrotation
      JOINT RightShoulder
      {
       OFFSET -13.664500 0.000000 0.000000
       CHANNELS 3 Yrotation Xrotation Zrotation
       JOINT RightElbow
       {
        OFFSET 0.000000 -29.999200 0.000000
        CHANNELS 3 Yrotation Xrotation Zrotation
        JOINT RightWrist
        {
         OFFSET 0.000000 -24.253600 0.000000
         CHANNELS 3 Yrotation Xrotation Zrotation
         End Site
         {
          OFFSET 0.000000 -17.918900 0.000000
         }
        }
       }
      }
     }
     JOINT LeftCollar
     {
      OFFSET 2.920100 9.518800 0.000000
      CHANNELS 3 Yrotation Xrotation Zrotation
      JOINT LeftShoulder
      {
       OFFSET 13.664500 0.000000 0.000000
       CHANNELS 3 Yrotation Xrotation Zrotation
       JOINT LeftElbow
       {
        OFFSET 0.000000 -29.999200 0.000000
        CHANNELS 3 Yrotation Xrotation Zrotation
        JOINT LeftWrist
        {
         OFFSET 0.000000 -24.253600 0.000000
         CHANNELS 3 Yrotation Xrotation Zrotation
         End Site
         {
          OFFSET 0.000000 -17.918900 0.000000
         }
        }
       }
      }
     }
    }
   }
  }
 }
 JOINT RightHip
 {
  OFFSET -7.797300 0.005300 0.000500
  CHANNELS 3 Yrotation Xrotation Zrotation
  JOINT RightKnee
  {
   OFFSET 0.000000 -40.663400 -0.000500
   CHANNELS 3 Yrotation Xrotation Zrotation
   JOINT RightAnkle
   {
    OFFSET 0.000000 -39.523700 -0.000900
    CHANNELS 3 Yrotation Xrotation Zrotation
    JOINT RightToe
    {
     OFFSET 0.000000 -6.418000 14.485300
     CHANNELS 3 Yrotation Xrotation Zrotation
     End Site
     {
      OFFSET 0.000000 -1.465200 6.326400
     }
    }
   }
  }
 }
 JOINT LeftHip
 {
  OFFSET 7.797300 0.005300 0.000500
  CHANNELS 3 Yrotation Xrotation Zrotation
  JOINT LeftKnee
  {
   OFFSET 0.000000 -40.663400 -0.000500
   CHANNELS 3 Yrotation Xrotation Zrotation
   JOINT LeftAnkle
   {
    OFFSET 0.000000 -39.523700 -0.000900
    CHANNELS 3 Yrotation Xrotation Zrotation
    JOINT LeftToe
    {
     OFFSET 0.000000 -6.418000 14.485300
     CHANNELS 3 Yrotation Xrotation Zrotation
     End Site
     {
      OFFSET 0.000000 -1.465200 6.326400
     }
    }
   }
  }
 }
}
MOTION
Frames: 6
Frame Time: 0.008333
0.000000 86.422400 0.000000 0.000000 -5.767877 0.000000 0.000000 11.653817 0.000000 0.000000 -5.885947 0.000000 0.000000 -0.000000 0.000000 0.000000 -0.000000 0.000000 0.000000 12.528835 0.000000 0.000000 0.711642 0.000000 0.000000 -0.000000 0.000000 0.000000 0.000000 -90.000000 0.000000 -2.309062 0.000000 0.000000 2.309062 0.000000 0.000000 -0.000000 0.000000 0.000000 -0.000000 90.000000 0.000000 -2.309062 0.000000 0.000000 2.309062 0.000000 0.000000 8.520406 0.000000 0.000000 1.905762 0.000000 -0.000000 -4.658285 0.000000 0.000000 -0.000000 0.000000 0.000000 8.520406 0.000000 0.000000 1.905762 0.000000 -0.000000 -4.658285 0.000000 0.000000 -0.000000 0.000000
-12.786498 126.882027 -5.291561 -170.544013 -45.256961 -4.001085 -1.322407 25.844589 1.407041 -0.245368 4.241463 0.263284 -0.397375 6.760219 0.415961 -1.132944 21.273058 1.204614 -3.667629 17.623251 -5.607831 -2.646571 -7.011078 -5.176037 1.593856 2.138619 0.557142 -4.944730 -12.832329 -6.527459 -76.031397 -31.651344 137.496544 -21.280100 -15.069402 -1.026372 -8.629943 -2.598939 1.700796 -0.348462 -14.529160 4.911466 54.845847 -24.610928 -119.112088 25.461653 -40.348243 0.193319 -11.011605 -13.204335 -10.396978 -166.943872 75.127762 -171.229665 22.411003 22.226663 -7.364443 0.001661 -0.005626 0.000736 12.273354 -15.390737 -9.489284 6.027551 69.690734 -7.132672 6.153096 -12.043254 13.025550 0.004927 -0.003510 0.002183
-12.786729 126.882104 -5.293094 -170.549628 -45.248289 -4.004532 -1.318890 25.836306 1.414945 -0.264562 4.240722 0.271041 -0.391285 6.757025 0.413989 -1.129484 21.265691 1.210928 -3.666697 17.655711 -5.617723 -2.644521 -6.988652 -5.186985 1.597814 2.154183 0.540162 -4.959314 -12.781859 -6.560601 -76.042441 -31.736900 137.483636 -21.299860 -15.115714 -1.115732 -8.624433 -2.586343 1.708574 -0.329249 -14.534737 4.993427 54.861631 -24.620946 -119.127625 25.435554 -40.328900 0.206418 -11.010889 -13.208145 -10.392875 -166.933155 75.126254 -171.218037 22.406279 22.222874 -7.375601 0.002271 -0.005406 0.001006 12.278826 -15.396716 -9.492207 6.035404 69.688586 -7.119241 6.150916 -12.043666 13.033574 0.004963 -0.002525 0.002199
-12.787055 126.881815 -5.294562 -170.555052 -45.234975 -4.008004 -1.321221 25.826348 1.421943 -0.263569 4.238384 0.272097 -0.393663 6.751144 0.417169 -1.125169 21.264564 1.210678 -3.665899 17.676636 -5.620050 -2.646300 -6.989596 -5.193578 1.593309 2.170612 0.546859 -4.946975 -12.743777 -6.604721 -76.059075 -31.789753 137.479389 -21.284865 -15.138739 -1.207444 -8.615345 -2.591949 1.722988 -0.331862 -14.529182 5.009389 54.861822 -24.666090 -119.101924 25.427640 -40.296814 0.194163 -11.011037 -13.216690 -10.388012 -166.926299 75.124548 -171.210616 22.400584 22.219861 -7.386239 0.002742 -0.005443 0.001215 12.290177 -15.404439 -9.502377 6.043969 69.685209 -7.100492 6.155892 -12.049600 13.039857 0.002416 -0.000509 0.001070
-12.785755 126.880309 -5.295099 -170.574402 -45.209817 -4.010352 -1.313775 25.812180 1.440104 -0.255094 4.227809 0.269012 -0.397983 6.741304 0.428647 -1.122912 21.267200 1.203705 -3.668834 17.687359 -5.626685 -2.644105 -6.939702 -5.196982 1.585667 2.182124 0.554357 -4.908404 -12.669832 -6.662802 -76.129706 -31.835906 137.517610 -21.261040 -15.147161 -1.289602 -8.609242 -2.592242 1.720758 -0.356091 -14.548959 5.087671 54.885372 -24.654970 -119.094887 25.429666 -40.247352 0.161291 -11.002490 -13.235397 -10.376132 -166.947160 75.124891 -171.227259 22.397474 22.216417 -7.394520 0.000162 -0.002953 0.000072 12.300823 -15.431875 -9.495551 6.047770 69.690845 -7.100999 6.155279 -12.056491 13.048468 0.003415 -0.000845 0.001513
-12.786582 126.880743 -5.297526 -170.577171 -45.200165 -4.013335 -1.308804 25.809522 1.451625 -0.257304 4.221650 0.266699 -0.396785 6.738563 0.432087 -1.122815 21.254351 1.212757 -3.668578 17.715283 -5.635196 -2.631597 -6.879896 -5.204453 1.599363 2.197970 0.566428 -4.894166 -12.636134 -6.699195 -76.176107 -31.871179 137.530542 -21.187357 -15.131293 -1.399909 -8.611210 -2.590744 1.712099 -0.384678 -14.572712 5.151023 54.922999 -24.645843 -119.086374 25.423502 -40.173835 0.105472 -10.997943 -13.235864 -10.376464 -166.969783 75.128843 -171.244161 22.393860 22.214895 -7.401633 -0.001528 -0.004333 -0.000677 12.309163 -15.439555 -9.500383 6.004457 69.700323 -7.141744 6.165951 -12.067527 13.062001 0.002057 -0.002391 0.000911
